<svg xmlns="http://www.w3.org/2000/svg" aria-hidden="true" style="position:absolute;width:0;height:0;overflow:hidden"><defs><symbol id=".form-field-icon-send" viewBox="0 0 38 32"><path  d="M38.4 0 0 18l12.272 3.788L31.2 7 16.803 23.186l.012.004-.014-.004V32l6.882-6.691L32.401 28l6-28z" style="fill:var(--color1, #fff)"/></symbol><symbol id="icon-figureicon" viewBox="0 0 32 32"><path  d="M16 16c4.42 0 8-3.58 8-8s-3.58-8-8-8-8 3.58-8 8 3.58 8 8 8zm0 4c-5.34 0-16 2.68-16 8v2c0 1.1.9 2 2 2h28c1.1 0 2-.9 2-2v-2c0-5.32-10.66-8-16-8z" style=""/></symbol><symbol id="icon-lettericon" viewBox="0 0 43 32"><path d="M37.333 0h-32c-2.2 0-3.98 1.8-3.98 4l-.02 24c0 2.2 1.8 4 4 4h32c2.2 0 4-1.8 4-4V4c0-2.2-1.8-4-4-4zm-.8 8.5-14.14 8.84c-.64.4-1.48.4-2.12 0L6.133 8.5c-.5-.32-.8-.86-.8-1.44 0-1.34 1.46-2.14 2.6-1.44l13.4 8.38 13.4-8.38c1.14-.7 2.6.1 2.6 1.44 0 .58-.3 1.12-.8 1.44z"/></symbol><symbol id="icon-phone" viewBox="0 0 32 32"><path d="m28.865 21.822-4.525-.517a3.543 3.543 0 0 0-2.921 1.015l-3.278 3.278A26.8 26.8 0 0 1 6.402 13.859l3.296-3.296a3.545 3.545 0 0 0 1.015-2.921l-.517-4.489A3.566 3.566 0 0 0 6.651 0H3.569C1.556 0-.118 1.675.006 3.687.95 18.9 13.117 31.049 28.312 31.993c2.013.125 3.687-1.55 3.687-3.563v-3.082c.018-1.799-1.336-3.313-3.135-3.527z"/></symbol><svg xmlns="http://www.w3.org/2000/svg" aria-hidden="true" style="position:absolute;width:0;height:0;overflow:hidden"><defs><symbol id="icon-check-mark" viewBox="0 0 40 32"><path  d="M33.782 1.02a3.668 3.668 0 0 1 5.115.039 3.712 3.712 0 0 1 .135 5.141L19.454 30.817a3.674 3.674 0 0 1-4.074.914 3.675 3.675 0 0 1-1.226-.815L1.17 17.862A3.693 3.693 0 0 1-.001 15.22a3.714 3.714 0 0 1 1.077-2.682 3.664 3.664 0 0 1 4.1-.763 3.68 3.68 0 0 1 1.195.857l10.275 10.325 17.042-21.83c.031-.038.063-.074.098-.109h-.005z" style=""/></symbol></defs></svg><svg xmlns="http://www.w3.org/2000/svg" aria-hidden="true" style="position:absolute;width:0;height:0;overflow:hidden"><defs><symbol id="icon-burger" viewBox="0 0 47 32"><path d="M.809.147a1.9 1.9 0 0 0-.561.442l-.247.3v2.467l.332.332c.636.636-1.54.583 23.293.56l22.106-.019.407-.225.407-.227V.402L45.74.001 23.433.002C1.9.003 1.114.009.809.147zm.259 13.428c-.359.109-.742.384-.909.653-.141.23-.159.384-.159 1.412 0 1.004.02 1.187.151 1.401.217.355.735.628 1.364.72.742.108 43.081.108 43.821 0 .295-.042.679-.156.854-.252l.316-.175v-3.408l-.698-.39-22.263-.013c-12.246-.007-22.361.016-22.477.051zm.151 13.506c-.429.102-.7.26-.975.573L0 27.933v2.497l.332.332c.636.634-1.54.582 23.293.56 20.793-.019 22.122-.028 22.378-.154.573-.285.543-.17.543-2.022v-1.673l-.892-.438-22.071-.012c-12.748-.007-22.193.016-22.364.057z"/></symbol></defs></svg></defs></svg>